<svg id="Artwork" xmlns="http://www.w3.org/2000/svg" xmlns:xlink="http://www.w3.org/1999/xlink" viewBox="0 0 386.72 174.39"><defs><style>.cls-1{fill:url(#radial-gradient);}.cls-2{fill:#373737;}</style><radialGradient id="radial-gradient" cx="-1228.33" cy="-731.01" r="218.51" gradientTransform="translate(499.92 1118.73) scale(0.35 1.41)" gradientUnits="userSpaceOnUse"><stop offset="0" stop-color="#faa61a"/><stop offset="1" stop-color="#ffde17"/></radialGradient></defs><title>SprowtLabs-RGB</title><path class="cls-1" d="M78.86,26.63l-9.32-5.38a1.32,1.32,0,0,0-2,1.14V33.15a7.93,7.93,0,0,0,4,6.87l9.32,5.38a1.32,1.32,0,0,0,2-1.14V33.5A7.93,7.93,0,0,0,78.86,26.63ZM93.72,86.18V96.94a7.93,7.93,0,0,0,4,6.87l9.32,5.38a1.32,1.32,0,0,0,2-1.14V97.28a7.93,7.93,0,0,0-4-6.87L95.71,85A1.32,1.32,0,0,0,93.72,86.18Zm2.52-49.52-9.32-5.38a1.32,1.32,0,0,0-2,1.14V43.19a7.93,7.93,0,0,0,4,6.87l9.32,5.38a1.32,1.32,0,0,0,2-1.14V43.53A7.93,7.93,0,0,0,96.25,36.66ZM59,66.11V76.87a7.93,7.93,0,0,0,4,6.87l9.32,5.38a1.32,1.32,0,0,0,2-1.14V77.21a7.93,7.93,0,0,0-4-6.87L60.94,65A1.32,1.32,0,0,0,59,66.11ZM79.3,113.46l9.32,5.38a7.93,7.93,0,0,0,7.93,0l9.32-5.38a1.32,1.32,0,0,0,0-2.29l-9.32-5.38a7.93,7.93,0,0,0-7.93,0l-9.32,5.38A1.32,1.32,0,0,0,79.3,113.46Zm-25,34.3,9.32,5.38a1.32,1.32,0,0,0,2-1.14V141.24a7.93,7.93,0,0,0-4-6.87L52.34,129a1.32,1.32,0,0,0-2,1.14v10.76A7.93,7.93,0,0,0,54.32,147.76Zm42.36-24.17L106,129a7.93,7.93,0,0,0,7.93,0l9.32-5.38a1.41,1.41,0,0,0,0-2.38l-9.32-5.38a7.93,7.93,0,0,0-7.93,0l-9.32,5.38a1.41,1.41,0,0,0,0,2.38ZM79.16,108.8l9.32-5.38a1.32,1.32,0,0,0,0-2.29l-9.32-5.38a7.93,7.93,0,0,0-7.93,0l-9.32,5.38a1.32,1.32,0,0,0,0,2.29l9.32,5.38A7.93,7.93,0,0,0,79.16,108.8ZM19.08,65.65,9.77,71a1.32,1.32,0,0,0,0,2.29l9.32,5.38a7.93,7.93,0,0,0,7.93,0l9.32-5.38a1.32,1.32,0,0,0,0-2.29L27,65.65A7.93,7.93,0,0,0,19.08,65.65Zm42.7,33.12,9.32-5.38a1.32,1.32,0,0,0,0-2.29l-9.32-5.38a7.93,7.93,0,0,0-7.93,0L44.53,91.1a1.32,1.32,0,0,0,0,2.29l9.32,5.38A7.93,7.93,0,0,0,61.78,98.77Zm64.59,19.31V107.32a7.93,7.93,0,0,0-4-6.87l-9.32-5.38a1.32,1.32,0,0,0-2,1.14V107a7.93,7.93,0,0,0,4,6.87l9.32,5.38A1.32,1.32,0,0,0,126.37,118.08ZM88.08,27a1.32,1.32,0,0,0,0,2.29l9.32,5.38a7.93,7.93,0,0,0,7.93,0l9.32-5.38a1.32,1.32,0,0,0,0-2.29l-9.32-5.38a7.93,7.93,0,0,0-7.93,0ZM19.56,127.69l9.32,5.38a1.32,1.32,0,0,0,2-1.14V121.17a7.93,7.93,0,0,0-4-6.87l-9.32-5.38a1.32,1.32,0,0,0-2,1.14v10.76A7.93,7.93,0,0,0,19.56,127.69ZM37.48,69a1.32,1.32,0,0,0,2-1.14V57.14a7.93,7.93,0,0,0-4-6.87l-9.32-5.38a1.32,1.32,0,0,0-2,1.14V56.8a7.93,7.93,0,0,0,4,6.87Zm-.54,68.68,9.32,5.38a1.32,1.32,0,0,0,2-1.14V131.2a7.93,7.93,0,0,0-4-6.87L35,119a1.32,1.32,0,0,0-2,1.14v10.76A7.93,7.93,0,0,0,36.94,137.73ZM54.86,79.08a1.32,1.32,0,0,0,2-1.14V67.18a7.93,7.93,0,0,0-4-6.87l-9.32-5.38a1.32,1.32,0,0,0-2,1.14V66.83a7.93,7.93,0,0,0,4,6.87ZM44.4,88.73l9.32-5.38a1.32,1.32,0,0,0,0-2.29L44.4,75.68a7.93,7.93,0,0,0-7.93,0l-9.32,5.38a1.32,1.32,0,0,0,0,2.29l9.32,5.38A7.93,7.93,0,0,0,44.4,88.73ZM76.34,76.15V86.9a7.93,7.93,0,0,0,4,6.87l9.32,5.38a1.32,1.32,0,0,0,2-1.14V87.25a7.93,7.93,0,0,0-4-6.87L78.33,75A1.32,1.32,0,0,0,76.34,76.15ZM79,144.4,69.72,139a1.32,1.32,0,0,0-2,1.14v10.76a7.93,7.93,0,0,0,4,6.87L81,163.18A1.32,1.32,0,0,0,83,162V151.27A7.93,7.93,0,0,0,79,144.4Zm.84,20.75-9.32-5.38a7.93,7.93,0,0,0-7.93,0l-9.32,5.38a1.32,1.32,0,0,0,0,2.29l9.32,5.38a7.93,7.93,0,0,0,7.93,0l9.32-5.38A1.32,1.32,0,0,0,79.88,165.16Zm-17.38-7.75a1.32,1.32,0,0,0,0-2.29l-9.32-5.38a7.93,7.93,0,0,0-7.93,0l-9.32,5.38a1.32,1.32,0,0,0,0,2.29l9.32,5.38a7.93,7.93,0,0,0,7.93,0ZM97.35,155,87.1,149.06a1.32,1.32,0,0,0-2,1.14V162a1.37,1.37,0,0,0,2.06,1.19l10.17-5.87A1.37,1.37,0,0,0,97.35,155Zm27-29.64-10.17,5.87a1.37,1.37,0,0,0,0,2.38l10.25,5.92a1.32,1.32,0,0,0,2-1.14V126.53A1.37,1.37,0,0,0,124.31,125.34ZM132,37l-9.32-5.38a7.93,7.93,0,0,0-7.93,0L105.46,37a1.32,1.32,0,0,0,0,2.29l9.32,5.38a7.93,7.93,0,0,0,7.93,0L132,39.34A1.32,1.32,0,0,0,132,37ZM113.63,46.7l-9.32-5.38a1.32,1.32,0,0,0-2,1.14V53.22a7.93,7.93,0,0,0,4,6.87l9.32,5.38a1.32,1.32,0,0,0,2-1.14V53.57A7.93,7.93,0,0,0,113.63,46.7ZM45.11,147.38a1.32,1.32,0,0,0,0-2.29l-9.32-5.38a7.93,7.93,0,0,0-7.93,0l-9.32,5.38a1.32,1.32,0,0,0,0,2.29l9.32,5.38a7.93,7.93,0,0,0,7.93,0ZM122,140.76l-1.07-.62a1.37,1.37,0,0,0-1.37,0L99.9,151.48a1.37,1.37,0,0,0,0,2.38l1.07.62a1.37,1.37,0,0,0,1.37,0L122,143.14A1.37,1.37,0,0,0,122,140.76ZM54.15,30l9.32,5.38a1.32,1.32,0,0,0,2-1.14V23.46a7.93,7.93,0,0,0-4-6.87l-9.32-5.38a1.32,1.32,0,0,0-2,1.14V23.12A7.93,7.93,0,0,0,54.15,30ZM35.83,19.41l10.25,5.92a1.32,1.32,0,0,0,2-1.14V12.35A1.37,1.37,0,0,0,46,11.16L35.83,17A1.37,1.37,0,0,0,35.83,19.41ZM27.73,137.34a1.32,1.32,0,0,0,0-2.29l-9.32-5.38a7.93,7.93,0,0,0-7.93,0l-9.32,5.38a1.32,1.32,0,0,0,0,2.29l9.32,5.38a7.93,7.93,0,0,0,7.93,0ZM70.69,17a1.32,1.32,0,0,0,0,2.29L80,24.64a7.93,7.93,0,0,0,7.93,0l9.32-5.38a1.32,1.32,0,0,0,0-2.29L87.94,11.6a7.93,7.93,0,0,0-7.93,0ZM53.31,9.23l9.32,5.38a7.93,7.93,0,0,0,7.93,0l9.32-5.38a1.32,1.32,0,0,0,0-2.29L70.56,1.56a7.93,7.93,0,0,0-7.93,0L53.31,6.94A1.32,1.32,0,0,0,53.31,9.23ZM8.87,69.15l10.05-5.8a1.37,1.37,0,0,0,0-2.38L8.87,55.16a1.37,1.37,0,0,0-2.06,1.19V68A1.37,1.37,0,0,0,8.87,69.15Zm2.29-35.49,1.07.62a1.37,1.37,0,0,0,1.37,0L33.24,22.94a1.37,1.37,0,0,0,0-2.38l-1.07-.62a1.37,1.37,0,0,0-1.37,0L11.16,31.27A1.37,1.37,0,0,0,11.16,33.65Zm-.38,20L20.09,59a1.32,1.32,0,0,0,2-1.14V47.09a7.93,7.93,0,0,0-4-6.87L8.87,34.88a1.37,1.37,0,0,0-2.06,1.19V46.74A7.93,7.93,0,0,0,10.78,53.61Z"/><path class="cls-2" d="M172,49.8c0-3.28-2.21-4.82-6.49-4.82s-6.56,1.54-6.56,4.82v1a3.71,3.71,0,0,0,2.74,3.61l11.64,4.15c4.55,1.61,7.9,4.68,7.9,9.64v5.15c0,5.62-3.95,10.91-15.93,10.91s-16-5.29-16-10.91V69.14c0-1.2.47-1.74,1.61-1.74h5.62c1.2,0,1.61.53,1.61,1.74v3c0,3.28,2.54,4.82,7.09,4.82s7.09-1.54,7.09-4.82V70c0-2.74-2.68-3.81-5.69-5l-10.37-3.88a9.55,9.55,0,0,1-6.09-8.63V48.6c0-5.62,3.48-10.91,15.19-10.91S180.79,43,180.79,48.6v2.74c0,1.14-.47,1.67-1.67,1.67h-5.62c-1.14,0-1.54-.54-1.54-1.67Z"/><path class="cls-2" d="M196.06,67.6V82c0,1.2-.4,1.74-1.61,1.74h-5.82c-1.2,0-1.61-.54-1.61-1.74V40c0-1.2.4-1.74,1.61-1.74h14.05c12.11,0,16.19,5.29,16.19,10.91v7.56c0,5.62-4.08,10.91-16.19,10.91Zm0-21.88V60.11h6.62c4.48,0,7.23-1.67,7.23-5V50.74c0-3.35-2.74-5-7.23-5Z"/><path class="cls-2" d="M233,66.4V82c0,1.2-.4,1.74-1.61,1.74h-5.82c-1.2,0-1.61-.54-1.61-1.74V40c0-1.2.4-1.74,1.61-1.74h14.05c12.11,0,16.19,5.29,16.19,10.91v6.36c0,3.95-2,7.7-7.36,9.64L255.73,82c.47,1.07-.33,1.74-1.54,1.74H248.3c-.94,0-1.2-.67-1.67-1.74L240.07,66.4h-7Zm0-20.68V58.9h6.62c4.48,0,7.23-1.67,7.23-5V50.74c0-3.35-2.74-5-7.23-5Z"/><path class="cls-2" d="M261.08,48.6c0-5.62,4.15-10.91,16.26-10.91S293.61,43,293.61,48.6V73.35c0,5.62-4.15,10.91-16.26,10.91S261.08,79,261.08,73.35Zm23.49,1.61c0-3.35-2.74-5-7.23-5s-7.16,1.67-7.16,5V71.75c0,3.35,2.68,5,7.16,5s7.23-1.67,7.23-5Z"/><path class="cls-2" d="M334.43,62.65c.53,2.28,1,6,1.07,6.62a64.37,64.37,0,0,1,1.2-6.56l5.75-22.82a1.85,1.85,0,0,1,1.94-1.67h5.09c1.2,0,1.54.6,1.27,1.67L340.11,82.05A1.92,1.92,0,0,1,338,83.73h-5.69a1.87,1.87,0,0,1-1.87-1.67l-5.89-23.29a57.55,57.55,0,0,1-.94-6.09c-.07.67-.6,4.75-.94,6.09l-5.89,23.29a1.88,1.88,0,0,1-2.07,1.67h-5.69a1.87,1.87,0,0,1-1.87-1.67L296.55,39.9c-.27-1.07.07-1.67,1.27-1.67h6a1.85,1.85,0,0,1,1.94,1.67l5.62,22.82c.6,2.48,1.07,5.62,1.07,5.62s.33-2.21,1.2-5.62l5.75-22.82a1.87,1.87,0,0,1,2-1.67h5.42a1.87,1.87,0,0,1,2,1.67Z"/><path class="cls-2" d="M384.55,38.22c1.14,0,1.67.4,1.67,1.61V44c0,1.2-.54,1.67-1.67,1.67H375V82c0,1.2-.4,1.74-1.61,1.74h-5.82c-1.2,0-1.67-.54-1.67-1.74V45.72h-9.5c-1.2,0-1.67-.47-1.67-1.67V39.83c0-1.2.47-1.61,1.67-1.61Z"/><path class="cls-2" d="M154.89,135.66h18.74c.67,0,.94.27.94.94v2.14c0,.74-.27,1-.94,1H150.94q-.8,0-.8-1V95.24c0-.67.27-1,.94-1H154c.67,0,.94.33.94,1Z"/><path class="cls-2" d="M198.4,95.24l13.38,43.5q.3,1-.8,1H208.1c-.67,0-1-.33-1.2-1l-3.68-11.91H187.9l-3.61,11.91c-.2.67-.47,1-1.14,1h-2.68c-.67,0-.94-.33-.74-1L193,95.24a1.18,1.18,0,0,1,1.27-1h2.88C197.87,94.23,198.2,94.57,198.4,95.24Zm-1.07,12.11c-.67-2.14-1.54-7.36-1.67-8.1a72.11,72.11,0,0,1-1.67,8L189,123h13.18Z"/><path class="cls-2" d="M218.68,139.74c-.67,0-.94-.33-.94-1V95.24c0-.67.27-1,.94-1h11.51c11,0,14.45,4.08,14.45,9.37V108c0,3.61-1.61,6.42-6,7.9,5.42,1.2,7.9,4.15,7.9,8.23v6c0,5.35-3.41,9.64-14.52,9.64Zm3.75-41.56v16.26h8.43c6.49,0,9.1-2.61,9.1-6.49v-3.61c0-3.95-2.68-6.16-9.77-6.16Zm0,20v17.6H232c7.16,0,9.77-2.54,9.77-6.42v-5c0-3.68-2.61-6.22-9.77-6.22Z"/><path class="cls-2" d="M267.12,97.71c-7,0-9.23,2.48-9.23,6.36v2c0,3.28,2.21,4.55,3.88,5.22L274.35,116c3.61,1.34,7,4,7,8.7v5.75c0,5.35-3.48,9.77-14.32,9.77s-14.32-4.42-14.32-9.77v-3.68c0-.74.27-1,.94-1h2.74c.67,0,.94.27.94,1v3.08c0,3.88,2.54,6.36,9.64,6.36s9.7-2.48,9.7-6.36v-4.15c0-3.48-2.94-4.89-5.55-5.89l-12-4.62a8.77,8.77,0,0,1-5.82-8v-3.75c0-5.35,3.15-9.77,13.78-9.77S281,98.12,281,103.47v3.14c0,.67-.27,1-1,1h-2.74c-.67,0-.94-.33-.94-1v-2.54C276.29,100.19,274.08,97.71,267.12,97.71Z"/><path class="cls-2" d="M289.92,95.95c.12,0,.17,0,.17.16v.34c0,.12-.05.16-.17.16h-1.38v4.5c0,.1,0,.16-.14.16h-.48a.14.14,0,0,1-.16-.16V96.6h-1.37c-.13,0-.17,0-.17-.16V96.1c0-.12,0-.16.17-.16Zm5.59,5.15c0,.1,0,.16-.16.16h-.44c-.12,0-.16-.05-.16-.16V97.43a2,2,0,0,1-.12.34l-1.16,2.52a.21.21,0,0,1-.21.16h-.34a.22.22,0,0,1-.21-.16l-1.18-2.55a1.84,1.84,0,0,1-.12-.35v3.71c0,.1,0,.16-.14.16h-.43c-.1,0-.14-.05-.14-.16v-5c0-.1,0-.16.14-.16h.43a.14.14,0,0,1,.14.08L293,99.24a3,3,0,0,1,.14.36c0-.06.1-.27.14-.35L294.77,96a.14.14,0,0,1,.14-.08h.44c.12,0,.16.05.16.16Z"/></svg>