<svg enable-background="new 0 0 214 50" viewBox="0 0 214 50" xmlns="http://www.w3.org/2000/svg"><path d="m74.2 47.4c.3.6 1.1 1 1.8.9.7 0 1.1-.3 1.1-.8s-.2-.7-.9-.8c-.8-.1-1.5-.4-2.2-.7-.7-.4-1.1-1.2-1-2 0-1.7 1-2.6 3-2.6 1.5 0 2.4.5 3 1.5l-1.6 1c-.3-.5-.9-.8-1.4-.8-.6 0-.9.3-.9.7s.3.8 1.5 1.1c.6.1 1.2.3 1.8.6.6.4.9 1.2.9 1.9.1.7-.2 1.4-.7 1.9-.7.5-1.6.7-2.4.7-.9 0-1.7-.2-2.5-.6-.4-.2-.7-.6-.9-1z" fill="#0071bc"/><path d="m81.4 41.4h3.4c.7-.1 1.5.1 2.1.5.5.5.7 1.2.7 1.8.1.6-.2 1.2-.6 1.7 1.1 1.1 1.1 2.9 0 4-.6.4-1.3.5-2 .4h-3.6zm3.2 3.3c.6 0 .8-.2.8-.8s-.2-.8-.8-.8h-1.2v1.7h1.2zm.2 3.5c.6 0 .8-.2.8-.9s-.2-.9-.8-.9h-1.3v1.8z" fill="#0071bc"/><path d="m90.1 41.4h2.1v8.5h-2.1z" fill="#0071bc"/><path d="m97.2 49.9h-2.1v-8.5h3.3c1.2 0 1.8.2 2.2.6.5.5.7 1.2.6 1.9 0 1.5-.4 2.1-1.5 2.5l1.8 3.4h-2.3l-1.5-3.3h-.6zm1-4.9c.7 0 1-.2 1-1s-.2-1-1-1h-1v2z" fill="#0071bc"/><path d="m103.7 48h2.1v1.8h-2.1z" fill="#0071bc"/><path d="m109.3 47.4c.3.6 1.1 1 1.8.9.7 0 1.1-.3 1.1-.8s-.2-.7-.9-.8c-.8-.1-1.5-.4-2.2-.7-.7-.4-1.1-1.2-1-2 0-1.7 1-2.6 3-2.6 1.5 0 2.4.5 3 1.5l-1.6 1c-.3-.5-.9-.8-1.4-.8-.6 0-.9.3-.9.7s.3.8 1.5 1.1c.6.1 1.2.3 1.8.6.6.4.9 1.2.9 1.9.1.7-.2 1.4-.7 1.9-.7.5-1.6.7-2.4.7-.9 0-1.7-.2-2.5-.6-.4-.2-.7-.6-.9-1z" fill="#0071bc"/><path d="m118.3 43.1h-2.2v-1.7h6.5v1.7h-2.2v6.8h-2.1z" fill="#0071bc"/><path d="m126.7 43.1h-2.2v-1.7h6.5v1.7h-2.2v6.8h-2.1z" fill="#0071bc"/><path d="m135.4 49.9h-2.1v-8.5h3.3c1.2 0 1.8.2 2.2.6.5.5.7 1.2.6 1.9 0 1.5-.4 2.1-1.5 2.5l1.8 3.4h-2.3l-1.5-3.3h-.6zm1-4.9c.7 0 1-.2 1-1s-.2-1-1-1h-1v2z" fill="#0071bc"/><path d="m76.3 11.2c-.2.5-.5 1.1-.6 1.6-.1.2-.2.2-.4.2h-3.1c-.1 0-.2-.1-.1-.3 1.9-4.1 4.6-9.6 6.3-12.7 0-.1.4 0 .4 0 1.8 3.5 4.3 8.6 6.3 12.7.1.2.1.3-.1.3h-3.5c-.1 0-.2 0-.2-.1-.2-.5-.5-1.2-.7-1.6zm3.5-2.4-1.4-2.8-1.3 2.8z" fill="#0071bc"/><path d="m94.9 5.2c.4-1.2 1.6-1.9 2.8-1.8 1.5 0 2.9.6 2.9 3v6.4c0 .2 0 .3-.2.3h-2.8c-.1 0-.2 0-.2-.2v-5.4c0-.9-.4-1.5-1.2-1.5-.5 0-1.1.3-1.3.8v5.9c0 .2 0 .3-.2.3h-2.7c-.1 0-.2 0-.2-.2v-5.3c0-1-.5-1.5-1.2-1.5-.5 0-1 .3-1.3.8v5.9c0 .2 0 .2-.1.2h-2.9c-.1 0-.1 0-.1-.3v-8.7c0-.2 0-.2.1-.2h2.8c.1 0 .2 0 .2.2v1.3c.4-1.1 1.6-1.9 2.8-1.8 1.5 0 2.4.5 2.8 1.8z" fill="#0071bc"/><path d="m111.4 7.7c0 .4 0 .8-.1 1.3 0 .2-.1.2-.4.2h-5.5c0 .9.8 1.7 1.8 1.6h.1c.7 0 1.4-.4 1.8-.9.1-.1.2 0 .3.1.4.5.9 1.3 1.3 1.9.1.2.1.3-.1.4-.9.7-2.1 1.1-3.3 1.1-2.8 0-4.9-1.9-4.9-5-.1-2.5 1.8-4.7 4.4-4.9h.5c2.2-.1 4.1 1.7 4.2 3.9-.1.1-.1.2-.1.3zm-2.9-.2c0-.8-.6-1.5-1.4-1.6h-.1c-.9 0-1.6.7-1.6 1.6z" fill="#0071bc"/><path d="m115.9 7.1v5.7c0 .2 0 .2-.1.2h-2.9c-.1 0-.1 0-.1-.3v-8.8c0-.2 0-.2.1-.2h2.8c.1 0 .1 0 .1.2v.9c.4-.9 1.3-1.4 2.2-1.4 1.2-.1 2.3.8 2.4 2v.3c-.4.4-1.7 1.8-1.9 2-.1.1-.3.1-.5.1 0-.8-.4-1.3-1-1.3-.5-.1-.9.2-1.1.6z" fill="#0071bc"/><path d="m124.8 2.4c0 .2 0 .2-.2.2h-2.8c-.1 0-.1-.1-.1-.2v-2c0-.1 0-.2.1-.2h2.8c.1 0 .2 0 .2.2zm0 10.4c0 .2 0 .2-.2.2h-2.8c-.1 0-.1 0-.1-.3v-8.8c0-.2 0-.2.1-.2h2.8c.1 0 .2 0 .2.2z" fill="#0071bc"/><path d="m135.7 10.3c.1.1.2.2.1.3-.7 1.7-2.5 2.8-4.4 2.7-2.9 0-5-1.9-5-4.9-.1-2.7 1.9-4.9 4.5-5.1h.4c2 0 3.7.9 4.4 2.8.1.1 0 .2-.1.3l-2.4 1c-.1 0-.1 0-.1-.1-.6-.9-1.8-1.1-2.7-.5-.5.4-.9 1-.9 1.6 0 1 .7 1.9 1.8 1.9h.2c.7 0 1.3-.3 1.6-.9.1-.1.1-.2.3-.1z" fill="#0071bc"/><path d="m143.5 11.7c-.3 1-1.5 1.5-2.6 1.5-2.5 0-4.4-1.8-4.4-4.8 0-2.8 2-4.8 4.4-4.8 1 0 2 .5 2.5 1.5v-1.2c0-.2 0-.2.1-.2h2.9c.1 0 .1.1.1.2v8.9c0 .2-.1.3-.1.3h-2.6c-.1 0-.2 0-.2-.1zm-3.9-3.2c0 1 .9 1.9 1.9 1.9s1.9-.9 1.9-1.9c.1-1-.7-1.9-1.7-1.9-.1 0-.1 0-.2 0-1 0-1.9.8-1.9 1.8 0-.1 0 0 0 .1z" fill="#0071bc"/><path d="m149.3 5.6c0 .1-.3.1-.5.1-.3 0-.5-.1-.5-.3v-4.8c0-.2.1-.2.1-.2h3.4c.1 0 .1.4 0 .5-.9 1.9-1.5 2.9-2.5 4.7z" fill="#0071bc"/><path d="m151.3 10.9 2-.8c.1 0 .1 0 .2.1.3.6.8 1 1.5 1 .8 0 1.2-.3 1.2-.7s-.4-.7-1.8-1.1c-1.8-.4-3-1.1-3-2.9s1.6-3.1 4.2-3.1c2.1 0 3.3.8 3.6 2 0 .1 0 .2-.1.3l-2.1.7c-.1.1-.1.1-.2-.1-.3-.5-.8-.8-1.4-.8-.7 0-1 .2-1 .6s.4.6 2 .9c1.9.4 3.1 1.2 3.1 2.9 0 2.1-1.6 3.4-4.3 3.4-2.4 0-3.5-.9-4.1-2.2.1 0 .1-.1.2-.2z" fill="#0071bc"/><g fill="#112e51"><path d="m81 24.8c-.4-.1-.7-.1-.9-.1-2.5-.4-3.5-.9-3.5-2.2 0-1 .6-1.7 2.5-1.7 1.4 0 2.6.9 3.1 2.2.1.1.1.2.3.1l3.2-1.3c.2-.1.3-.2.2-.5-.7-2.3-2.9-4-6.6-4-4.8 0-7.3 2.5-7.3 6 0 3.4 2.3 5.2 5.6 5.6l.7.1c2.5.3 3.3 1 3.3 2.1 0 1.3-.9 1.8-2.7 1.8-1.4 0-2.7-.8-3.3-2.2-.1-.2-.1-.2-.3-.1l-3.3 1.4c-.2.1-.2.2-.1.5.9 2.7 3.2 4.2 7 4.2 4.3 0 7.7-1.9 7.7-6.1-.1-3.4-2-5.3-5.6-5.8z"/><path d="m101.9 32-8 .1v-3.2h7.6c.2 0 .3-.1.3-.4v-3.4c0-.3 0-.4-.3-.4h-7.6v-3.1l7.8.1c.2 0 .3-.1.3-.4v-3.3c0-.3 0-.4-.3-.4h-12.3c-.3 0-.2 0-.2.3v17.8c0 .3 0 .4.3.4h12.5c.3 0 .3-.1.3-.4v-3.5c-.1-.2-.1-.2-.4-.2z"/><path d="m118.9 32-8 .1v-3.2h7.6c.2 0 .3-.1.3-.4v-3.4c0-.3 0-.4-.3-.4h-7.5v-3.1l7.8.1c.2 0 .3-.1.3-.4v-3.3c0-.3 0-.4-.3-.4h-12.3c-.3 0-.2 0-.2.3v17.8c0 .3 0 .4.3.4h12.5c.3 0 .3-.1.3-.4v-3.5c-.1-.2-.1-.2-.5-.2z"/><path d="m130.7 17.7h-7.6c-.2 0-.2.1-.2.3v18c0 .3 0 .2.2.2h7c5.4 0 9-3.3 9-9.2s-3.2-9.3-8.4-9.3zm-.5 14.6h-2.5v-10.7h2.6c2.4 0 3.7 2.3 3.7 5.3-.1 3.2-1.1 5.4-3.8 5.4z"/><path d="m159.8 17.7h-12c-.2 0-.2 0-.2.4v17.7c0 .4.1.4.2.4h4.4c.2 0 .2-.1.2-.4v-6l6.4.1c.2 0 .4-.1.4-.3.1-1.2.1-2.5 0-3.7 0-.2-.1-.3-.4-.3l-6.5.1v-3.7l7.3.1c.2 0 .2 0 .2-.3.1-1.2.1-2.5 0-3.7.2-.3.2-.4 0-.4z"/><path d="m177.9 17.7h-4.5c-.2 0-.2 0-.2.2v12.2c0 1.9-1.6 2.6-2.9 2.6s-2.9-.8-2.9-2.6v-12.1c0-.2 0-.2-.2-.2h-4.6c-.1 0-.1 0-.1.2v11.3c0 4.5 2.5 7.4 7.7 7.4 5.4 0 7.7-2.8 7.7-7.2v-11.6c.1-.2.1-.2 0-.2z"/><path d="m205.6 17.7h-7.6c-.2 0-.2.1-.2.3v18c0 .3 0 .2.2.2h7c5.4 0 9-3.3 9-9.2s-3.1-9.3-8.4-9.3zm-.5 14.6h-2.5v-10.7h2.6c2.4 0 3.7 2.3 3.7 5.3 0 3.2-1 5.4-3.8 5.4z"/><path d="m194.4 16.5c-2-1.7-3-2.4-4.6-3.6-.2-.1-.4-.1-.4.2v16.7c1.9 1.7 2.8 2.4 4.5 3.7.4.3.4.1.4-.4.1-6.2.1-16.6.1-16.6z"/><path d="m186.2 36.2c0-4.9 0-9.3 0-9.3-2-1.7-3-2.4-4.6-3.6-.2-.1-.4-.1-.4.2v12.7z"/><path d="m59.6 0h1v50h-1z"/><path d="m9.3 30.3c1-.1 1.5-.2 1.5-1.4v-8c-.9-1.2-1.2-1.2-1.4-1.2v-.4h3.6l5.9 7.2v-5.1c0-1-.2-1.6-1.6-1.7v-.4h3.6v.4c-1.2.2-1.3.5-1.3 1.4v10h-.5l-7.5-9.2v6.8c0 1.2.4 1.5 1.6 1.7v.4h-3.9z"/><path d="m9.3 30.3c1-.1 1.5-.2 1.5-1.4v-8c-.9-1.2-1.2-1.2-1.4-1.2v-.4h3.6l5.9 7.2v-5.1c0-1-.2-1.6-1.6-1.7v-.4h3.6v.4c-1.2.2-1.3.5-1.3 1.4v10h-.5l-7.5-9.2v6.8c0 1.2.4 1.5 1.6 1.7v.4h-3.9z"/><path d="m29 22.6c-.3-1.2-1.3-3.1-3.3-3.1-.9 0-1.8.5-1.8 1.6 0 .9.3 1.3 1.7 2l2.5 1.2c.6.3 1.9 1.3 1.9 3.1 0 1.5-1.1 3.5-4.2 3.5-1.6 0-2.4-.6-2.9-.6-.4 0-.4.3-.5.6h-.5v-4.2h.5c.3 1.7 1.3 3.6 3.5 3.6 2 0 2.1-1.7 2.1-1.9 0-1.1-.8-1.5-1.9-2.1l-1.2-.3c-2.9-1.4-2.9-2.9-2.9-3.7 0-1 .5-3.3 3.8-3.3 1.4 0 2.2.6 2.6.6s.5-.3.6-.6h.5v3.7h-.5z"/><path d="m29 22.6c-.3-1.2-1.3-3.1-3.3-3.1-.9 0-1.8.5-1.8 1.6 0 .9.3 1.3 1.7 2l2.5 1.2c.6.3 1.9 1.3 1.9 3.1 0 1.5-1.1 3.5-4.2 3.5-1.6 0-2.4-.6-2.9-.6-.4 0-.4.3-.5.6h-.5v-4.2h.5c.3 1.7 1.3 3.6 3.5 3.6 2 0 2.1-1.7 2.1-1.9 0-1.1-.8-1.5-1.9-2.1l-1.2-.3c-2.9-1.4-2.9-2.9-2.9-3.7 0-1 .5-3.3 3.8-3.3 1.4 0 2.2.6 2.6.6s.5-.3.6-.6h.5v3.7h-.5z"/><path d="m31 19.2h9.6v3.4h-.4c-.4-1.8-.8-2.8-3.7-2.8-.9 0-1.2.1-1.2.8v3.9c2.1 0 2.4-1.2 2.6-2.5h.4v5.7h-.4c-.2-1.4-.5-2.6-2.6-2.6v4c0 1.1.7 1.2 1.9 1.2v.4h-6.2v-.4c1-.1 1.5-.2 1.5-1.2v-8.2c0-1.1-.7-1.2-1.5-1.2z"/><path d="m31 19.2h9.6v3.4h-.4c-.4-1.8-.8-2.8-3.7-2.8-.9 0-1.2.1-1.2.8v3.9c2.1 0 2.4-1.2 2.6-2.5h.4v5.7h-.4c-.2-1.4-.5-2.6-2.6-2.6v4c0 1.1.7 1.2 1.9 1.2v.4h-6.2v-.4c1-.1 1.5-.2 1.5-1.2v-8.2c0-1.1-.7-1.2-1.5-1.2z"/><path d="m25 7.5c-9.7 0-17.6 7.8-17.6 17.5s7.9 17.5 17.5 17.5c9.7 0 17.5-7.9 17.5-17.5.1-9.7-7.7-17.5-17.4-17.5m0 34.7c-9.5 0-17.2-7.7-17.2-17.2s7.7-17.2 17.2-17.2 17.2 7.7 17.2 17.2-7.7 17.2-17.2 17.2"/><path d="m25 7.5c-9.7 0-17.6 7.8-17.6 17.5s7.9 17.5 17.5 17.5c9.7 0 17.5-7.9 17.5-17.5.1-9.7-7.7-17.5-17.4-17.5zm0 34.7c-9.5 0-17.2-7.7-17.2-17.2s7.7-17.2 17.2-17.2 17.2 7.7 17.2 17.2-7.7 17.2-17.2 17.2z"/><path d="m46.1 22.2c-.2-.4-.3-.8-.4-1.3-.1-.8-.1-1.6-.1-2.3.3-1.5 1.4-2.3 2.7-2.8-.2-.4-.3-.8-.5-1.1-1.4.7-3.1.8-4.3-.4-.3-.3-.5-.6-.8-.9-.4-.8-.8-1.6-1-2.3-.4-1.3.3-2.5 1.3-3.4-.3-.3-.6-.6-.9-.9-1 1.2-2.5 1.9-4.2 1.3-.3-.1-.6-.3-.9-.4-.7-.6-1.3-1.2-1.9-1.7-.9-1.3-.6-2.6-.1-3.8-.4-.2-.8-.3-1.1-.5-.5 1.5-1.6 2.7-3.4 2.8-.5 0-1.1 0-1.6-.1-.7-.2-1.3-.5-1.9-.7-1.3-.8-1.6-2.1-1.5-3.5-.4 0-.9 0-1.2 0 .1 1.6-.4 3.2-2 3.9-.3-.1-.7 0-1.1.2-.9.1-1.7.1-2.5.1-1.5-.3-2.2-1.4-2.7-2.7-.4.2-.8.3-1.1.5.7 1.4.8 3.1-.4 4.3-.3.3-.6.6-1 .9-.7.4-1.5.7-2.2 1-1.5.3-2.7-.4-3.6-1.4-.3.2-.7.6-.9.8 1.2 1 1.9 2.5 1.3 4.2-.2.3-.3.7-.5 1-.5.7-1.1 1.3-1.7 1.8-1.3.9-2.6.6-3.8.1-.2.4-.3.8-.5 1.1 1.5.5 2.7 1.6 2.8 3.4 0 .5 0 .9-.1 1.4-.2.8-.5 1.5-.8 2.1-.8 1.3-2.1 1.6-3.5 1.5v1.2c1.6-.1 3.2.4 3.9 2 .1.4.2.8.4 1.2.1.9.1 1.7.1 2.5-.3 1.4-1.4 2.2-2.7 2.7.2.4.3.8.5 1.1 1.4-.7 3.1-.8 4.3.4.3.3.6.6.9 1 .4.7.7 1.5 1 2.2.3 1.5-.4 2.6-1.4 3.6l.9.9c1-1.2 2.5-1.9 4.2-1.3.4.2.7.3 1.1.5.7.5 1.3 1.1 1.8 1.7.9 1.3.6 2.6.1 3.8.4.2.8.3 1.1.5.5-1.5 1.6-2.7 3.4-2.8.4 0 .9 0 1.3.1.8.2 1.6.5 2.2.8 1.3.8 1.6 2.1 1.5 3.5h1.2c-.1-1.6.4-3.2 2-3.9.4-.2.8-.3 1.3-.4.8-.1 1.6-.1 2.3-.1 1.5.3 2.3 1.4 2.8 2.7.4-.2.8-.3 1.1-.5-.7-1.4-.8-3.1.4-4.3.3-.3.6-.6 1-.9.7-.4 1.4-.7 2.1-.9 1.5-.3 2.6.4 3.6 1.4l.9-.9c-1.2-1-1.9-2.5-1.3-4.2.2-.5.4-.9.7-1.3.5-.6 1-1.1 1.5-1.6 1.3-.9 2.6-.6 3.8-.1.2-.4.3-.8.5-1.1-1.5-.5-2.7-1.6-2.8-3.4 0-.5 0-1 .1-1.5.2-.7.5-1.4.8-2 .8-1.3 2.1-1.6 3.5-1.5 0-.4 0-.9 0-1.2-1.7.1-3.3-.5-4-2.1m-1.1.8-.2.3c-.4.4-1.1.3-1.6.2-.4-.1-.7-.2-1.1-.3 0 .5.1.9.1 1.4.1.2.1.4 0 .5 0 .5 0 1-.1 1.5.4-.1.9-.2 1.3-.3.5 0 1-.1 1.3.3.4.6.2 1.7.2 2.4v.1c-.1.6-.3 1.1-.6 1.6l-.3.2c-.5.2-1.1-.2-1.6-.4-.3-.2-.6-.4-.9-.7-.1.5-.3.9-.5 1.3 0 .2-.1.4-.2.4-.2.5-.4.9-.6 1.3.4.1.9.1 1.3.2s.9.3 1.1.7c.1.7-.4 1.6-.8 2.3v.1c-.4.5-.7 1-1.3 1.4h-.3c-.6 0-1-.6-1.3-1-.2-.3-.4-.7-.6-1-.3.4-.6.7-.9 1.1v.1c-.1.2-.2.3-.4.3-.3.3-.7.7-1.1 1 .4.2.8.5 1.2.8s.7.6.7 1.1c-.2.7-.9 1.3-1.4 1.7-.6.4-1.1.7-1.8.9l-.3-.1c-.5-.2-.7-.9-.8-1.4-.1-.4-.1-.8-.2-1.1-.4.2-.8.4-1.3.6v.1c-.2.2-.3.2-.5.1-.4.2-.9.3-1.4.5.3.4.5.7.8 1.1.2.4.5.9.2 1.3-.4.6-1.3.8-2 1-.7.1-1.3.2-2 .1l-.3-.2c-.4-.4-.3-1.1-.2-1.6.1-.4.2-.7.3-1.1-.5 0-.9.1-1.4.1v.1c-.2.1-.4.1-.5-.1-.5 0-1 0-1.5-.1.1.4.2.9.3 1.3 0 .5.1 1-.3 1.3-.6.3-1.5.3-2.2.2s-1.4-.3-2.1-.7l-.2.1c-.2-.5.2-1.1.4-1.6.2-.3.4-.6.7-.9-.5-.1-.9-.3-1.3-.5-.2 0-.4-.1-.4-.2-.5-.2-.9-.4-1.3-.6-.1.4-.2.9-.3 1.3s-.3.9-.7 1.1c-.6.1-1.3-.2-1.9-.6s-1.3-.8-1.7-1.5v-.3c0-.6.6-1 1-1.3l.9-.6c-.4-.3-.7-.6-1.1-.9-.2-.1-.3-.2-.3-.3-.3-.4-.7-.7-1-1.1-.2.4-.5.8-.7 1.1-.3.4-.6.7-1.1.7-.6-.2-1.2-.8-1.6-1.4s-.8-1.2-1-2l.1-.3c.2-.5.9-.7 1.4-.8.4-.1.7-.1 1.1-.2-.2-.4-.4-.8-.6-1.3-.6-.1-.6-.3-.6-.4-.2-.5-.4-.9-.5-1.4-.4.3-.7.5-1.1.8-.4.2-.8.4-1.3.2-.5-.4-.8-1.1-1-1.7-.1-.8-.3-1.6-.1-2.4l.2-.3c.4-.4 1.1-.3 1.6-.2.4.1.7.2 1.1.3 0-.5-.1-.9-.1-1.4-.1-.2-.1-.4 0-.5 0-.5 0-1 .1-1.5-.4.1-.9.2-1.3.3-.5 0-1 .1-1.3-.3-.4-.6-.3-1.6-.2-2.3.1-.6.3-1.3.6-1.8l.3-.3c.5-.2 1.1.2 1.6.4.3.2.6.4.9.7.1-.5.3-.9.5-1.3 0 0 0 0 0-.1 0-.3.1-.4.3-.5.2-.4.4-.9.6-1.3-.5-.1-.9-.2-1.4-.3-.4-.1-.9-.3-1.1-.7-.1-.6.2-1.3.5-1.8.4-.6.9-1.3 1.5-1.8h.3c.6 0 1 .6 1.3 1 .2.3.4.6.6 1 .3-.4.6-.7.9-1.1 0 0 0 0 0-.1.1-.2.2-.3.4-.3.3-.3.7-.7 1.1-1-.4-.2-.8-.5-1.2-.7-.4-.3-.7-.6-.7-1.1.2-.6.8-1.2 1.4-1.6s1.3-.8 2-1l.3.1c.5.2.7.9.8 1.4.1.4.1.7.2 1.1.4-.2.8-.4 1.3-.6 0 0 0 0 0-.1.2-.2.4-.2.5-.2.5-.2.9-.3 1.4-.5-.3-.4-.5-.7-.8-1.1-.2-.4-.4-.8-.2-1.3.4-.5 1.1-.7 1.7-.9.7-.2 1.5-.4 2.3-.2l.3.2c.4.4.3 1.1.2 1.6-.1.4-.2.7-.3 1.1.5 0 .9-.1 1.4-.1 0 0 0 0 0-.1.2-.1.4-.1.5.1.5 0 1 0 1.5.1-.1-.4-.2-.9-.3-1.4 0-.5-.1-1 .3-1.3.6-.4 1.7-.2 2.4-.2.2 0 .3 0 .5.1.5.1.9.3 1.3.5l.2.3c.2.5-.2 1.1-.4 1.6-.2.3-.5.7-.7 1 .4.1.9.3 1.3.4l.1-.1c.3 0 .4.1.5.3.4.2.9.4 1.3.6.1-.5.2-1 .3-1.4s.3-.9.7-1.1c.5-.1 1.2.2 1.7.5.6.5 1.4.9 1.9 1.6v.3c0 .6-.6 1-1 1.3-.3.2-.7.4-1 .6.4.3.7.6 1.1.9h.1c.2.1.3.2.3.4.3.3.7.7 1 1.1.2-.4.5-.8.8-1.2s.6-.7 1.1-.7c.6.1 1.1.7 1.5 1.2.4.6.9 1.3 1.1 2.1l-.1.3c-.2.5-.9.7-1.4.8-.4.1-.7.1-1.1.2.2.4.4.8.6 1.3.2.2.2.3.2.4.2.5.4.9.5 1.4.4-.3.7-.5 1.1-.8.4-.2.9-.5 1.3-.2.5.4.8 1.3 1 2 .2.9.3 1.6.2 2.3"/></g></svg>